:version 1.10
:name ASF
:units
  mass 1
  length 1
  angle deg
:documentation
  ASF file generated by Kaydara
:root
  axis xyz
  order  tx ty tz rx ry rz
  position 0 0 0
  orientation 0 0 0
:bonedata
  begin
    id 1
    name LeftUpLegDummy
    direction 1 -2.30186e-007 -8.31532e-007
    length 2.93387
    axis 0 0 0 xyz
  end
  begin
    id 2
    name LeftUpLeg
    direction -1.82929e-007 -1 -1.48925e-009
    length 17.3336
    axis -3.48766 0.00143442 -0.000521554 xyz
    dof rx ry rz
  end
  begin
    id 3
    name LeftLeg
    direction -1.82929e-007 -1 -5.23717e-011
    length 14.9995
    axis 3.68178 -0.00654042 -0.000282425 xyz
    dof rx ry rz
  end
  begin
    id 4
    name LeftFoot
    direction 8.31532e-007 -4.54534e-011 1
    length 6.74421
    axis 1.87234e-006 4.66016e-005 -5.96866e-006 xyz
    dof rx ry rz
  end
  begin
    id 5
    name LeftToes
    direction 0.00818058 -0.00485161 0.999955
    length 3.85048
    axis 1.06247e-005 4.65869e-005 -5.96999e-006 xyz
    dof rx ry rz
  end
  begin
    id 6
    name SpineDummy
    direction -5.8607e-008 0.943407 -0.331637
    length 5.93572
    axis 0 0 0 xyz
  end
  begin
    id 7
    name Spine
    direction -1.04988e-007 0.999988 0.00495137
    length 10.1015
    axis -0.001389 0.000121417 6.61666e-006 xyz
    dof rx ry rz
  end
  begin
    id 8
    name Spine1
    direction 0 0 0
    length 0
    axis -0.001389 0.00012144 6.56766e-006 xyz
    dof rx ry rz
  end
  begin
    id 9
    name RightShoulderDummy
    direction -0.98348 0.17941 -0.0240696
    length 3.59882
    axis -0.001389 0.00012144 6.56766e-006 xyz
  end
  begin
    id 10
    name RightShoulder
    direction -0.978693 0.204882 0.0135597
    length 2.70001
    axis 0.215806 0.000203631 -0.00679732 xyz
    dof rx ry rz
  end
  begin
    id 11
    name RightArm
    direction -1 3.85509e-006 8.31394e-007
    length 10.2459
    axis -23.2009 -0.134239 -0.964098 xyz
    dof rx ry rz
  end
  begin
    id 12
    name RightForeArm
    direction -1 3.85569e-006 8.3129e-007
    length 8.16799
    axis -9.92322 0.0658061 0.17887 xyz
    dof rx ry rz
  end
  begin
    id 13
    name RightHand
    direction -0.992843 -0.0414604 0.112003
    length 5.28593
    axis -0.00960638 0.00330669 -0.185225 xyz
    dof rx ry rz
  end
  begin
    id 14
    name LeftShoulder1Dummy
    direction 0.983523 0.179172 -0.0240748
    length 3.59866
    axis -0.001389 0.00012144 6.56766e-006 xyz
  end
  begin
    id 15
    name LeftShoulder1
    direction 0.978627 0.205195 0.0135605
    length 2.70019
    axis -0.001389 0.00012144 6.57583e-006 xyz
    dof rx ry rz
  end
  begin
    id 16
    name LeftArm
    direction 1 3.51895e-006 -8.60188e-007
    length 10.2459
    axis -23.1894 0.134785 0.967513 xyz
    dof rx ry rz
  end
  begin
    id 17
    name LeftForeArm
    direction 1 3.51921e-006 -7.32029e-007
    length 8.16799
    axis -9.91835 -0.0656957 -0.177789 xyz
    dof rx ry rz
  end
  begin
    id 18
    name LeftHand
    direction 0.992938 -0.0411636 0.11126
    length 5.32135
    axis -0.00960237 -0.00340661 0.185177 xyz
    dof rx ry rz
  end
  begin
    id 19
    name HEadDummy
    direction 1.01974e-006 0.999861 -0.016675
    length 2.99946
    axis -0.001389 0.00012144 6.56766e-006 xyz
  end
  begin
    id 20
    name HEad
    direction -0.0222689 0.980941 0.193023
    length 5.12695
    axis -0.001389 0.00012144 6.56766e-006 xyz
    dof rx ry rz
  end
  begin
    id 21
    name RightUpLegDummy
    direction -1 2.30186e-007 8.31532e-007
    length 2.93387
    axis 0 0 0 xyz
  end
  begin
    id 22
    name RightUpLeg
    direction -1.82966e-007 -1 1.56832e-007
    length 17.3336
    axis -3.4909 -0.000906625 0.00028951 xyz
    dof rx ry rz
  end
  begin
    id 23
    name RightLeg
    direction -1.82786e-007 -1 -1.80317e-007
    length 14.9995
    axis 3.68513 0.0193739 -0.131021 xyz
    dof rx ry rz
  end
  begin
    id 24
    name RightFoot
    direction 8.31721e-007 -4.63324e-011 1
    length 6.74421
    axis 4.81691e-005 -0.120479 -0.188785 xyz
    dof rx ry rz
  end
  begin
    id 25
    name RightToes
    direction 0.00124746 -0.014064 0.9999
    length 3.85082
    axis 0.000481921 0.542163 -0.142575 xyz
    dof rx ry rz
  end
:hierarchy
  begin
    root LeftUpLegDummy SpineDummy RightUpLegDummy
    LeftUpLegDummy LeftUpLeg
    LeftUpLeg LeftLeg
    LeftLeg LeftFoot
    LeftFoot LeftToes
    SpineDummy Spine
    Spine Spine1
    Spine1 RightShoulderDummy LeftShoulder1Dummy HEadDummy
    RightShoulderDummy RightShoulder
    RightShoulder RightArm
    RightArm RightForeArm
    RightForeArm RightHand
    LeftShoulder1Dummy LeftShoulder1
    LeftShoulder1 LeftArm
    LeftArm LeftForeArm
    LeftForeArm LeftHand
    HEadDummy HEad
    RightUpLegDummy RightUpLeg
    RightUpLeg RightLeg
    RightLeg RightFoot
    RightFoot RightToes
  end

:SAMPLES-PER-SECOND 30
:FULLY-SPECIFIED
:DEGREES
202
root  -14.9408 34.2118 51.6732 6.58033 3.37854 -1.19904
LeftUpLeg  -25.6122 17.4897 -1.08786
LeftLeg  8.58023 14.4213 1.22179
LeftFoot  15.0466 -0.515316 3.90046
LeftToes  -17.9832 1.61378e-006 8.80029e-008
Spine  2.61313 1.5287 0.631093
Spine1  5.39226 3.1813 1.34145
RightShoulder  0.100026 9.1391 10.669
RightArm  -47.4839 -28.48 70.1125
RightForeArm  43.9794 4.21939 0.735463
RightHand  0.637664 -9.8653 -7.00381
LeftShoulder1  -0.0117607 2.33843 -10.6354
LeftArm  -39.7093 24.6916 -67.8934
LeftForeArm  33.5383 -7.10526 -1.25731
LeftHand  0.204732 4.71112 4.59718
HEad  -6.27598 3.65499 -9.70214
RightUpLeg  -5.4077 -11.473 1.81938
RightLeg  14.7757 9.90387 1.93368
RightFoot  -10.2231 -0.193183 -1.78199
RightToes  -33.4857 -0.168646 -0.275448
203
root  -14.6446 34.2056 52.2303 6.77477 4.28742 -0.134003
LeftUpLeg  -25.1342 16.9864 -2.51268
LeftLeg  9.0349 13.5834 1.25968
LeftFoot  14.5679 -0.456477 3.57016
LeftToes  -13.7694 1.61378e-006 8.80029e-008
Spine  2.43508 1.29347 -0.0217805
Spine1  5.04316 2.73826 0.0613654
RightShoulder  0.0693838 8.74765 10.5677
RightArm  -48.9521 -32.7977 70.5079
RightForeArm  43.586 4.08736 0.71274
RightHand  0.632912 -9.75318 -7.03325
LeftShoulder1  -0.0137845 2.57069 -10.8704
LeftArm  -39.5117 23.6344 -68.1351
LeftForeArm  30.8778 -8.16506 -1.44837
LeftHand  0.177311 5.17007 3.55107
HEad  -6.80615 2.89669 -9.61014
RightUpLeg  -4.76845 -10.1676 0.407278
RightLeg  15.3641 7.58591 1.56478
RightFoot  -11.203 -0.181788 -1.47589
RightToes  -33.8732 -0.169818 -0.276514
204
root  -14.3379 34.2443 52.7778 6.64541 5.18573 1.13961
LeftUpLeg  -24.3895 15.8832 -3.81053
LeftLeg  10.1687 13.6505 1.53598
LeftFoot  13.0459 -0.37046 3.2391
LeftToes  -12.215 1.61378e-006 8.80029e-008
Spine  2.4881 1.15843 -0.808413
Spine1  5.09057 2.50854 -1.4962
RightShoulder  0.03899 8.26927 10.3234
RightArm  -49.48 -35.9204 71.2262
RightForeArm  42.8093 4.25197 0.742765
RightHand  0.588718 -9.64471 -6.59521
LeftShoulder1  -0.00826227 2.46828 -11.1109
LeftArm  -36.8061 22.0582 -67.6804
LeftForeArm  29.524 -9.79662 -1.74263
LeftHand  0.135259 4.83277 2.83043
HEad  -6.99401 2.03931 -9.34935
RightUpLeg  -3.60894 -8.19952 -1.12277
RightLeg  15.5779 4.60257 0.969015
RightFoot  -11.8252 -0.13408 -0.917137
RightToes  -33.8038 -0.170034 -0.276711
205
root  -14.0239 34.3068 53.2964 6.55608 5.68559 2.31572
LeftUpLeg  -23.5545 15.8243 -5.18407
LeftLeg  10.9911 13.0232 1.65442
LeftFoot  11.6509 -0.283787 2.781
LeftToes  -11.4576 1.61378e-006 8.80029e-008
Spine  2.596 1.18063 -1.58101
Spine1  5.19552 2.61189 -3.04311
RightShoulder  0.0143885 8.09643 9.5935
RightArm  -50.0538 -37.769 72.3701
RightForeArm  42.5862 4.21885 0.737218
RightHand  0.579441 -9.71472 -6.43623
LeftShoulder1  0.00159188 2.25826 -11.2792
LeftArm  -32.8959 20.1304 -66.9338
LeftForeArm  29.6206 -11.7261 -2.0937
LeftHand  0.120141 4.1935 2.90585
HEad  -6.79286 1.37111 -9.22612
RightUpLeg  -2.68265 -6.24804 -2.51178
RightLeg  16.0701 2.00098 0.439615
RightFoot  -12.1557 -0.0798659 -0.372529
RightToes  -33.9269 -0.171876 -0.278311
206
root  -13.6935 34.3674 53.7819 6.57569 5.6579 3.09139
LeftUpLeg  -22.8017 16.2025 -6.25751
LeftLeg  11.5335 12.5235 1.7115
LeftFoot  10.176 -0.209514 2.3528
LeftToes  -10.2098 1.61378e-006 8.80029e-008
Spine  2.66035 1.28921 -2.19434
Spine1  5.22108 2.86487 -4.23774
RightShoulder  -7.78577e-005 8.24447 8.75816
RightArm  -50.4332 -38.5399 73.2907
RightForeArm  42.6716 5.13561 0.898853
RightHand  0.597259 -9.89413 -6.51756
LeftShoulder1  0.0129885 2.0288 -11.568
LeftArm  -28.8113 17.8356 -66.0032
LeftForeArm  30.5579 -13.396 -2.40127
LeftHand  0.114053 3.60022 3.25156
HEad  -6.44027 0.861759 -9.28588
RightUpLeg  -2.29621 -5.1289 -3.71642
RightLeg  17.2264 0.902252 0.217147
RightFoot  -12.3545 -0.0549327 -0.129998
RightToes  -34.7327 -0.177831 -0.283477
207
root  -13.3711 34.4185 54.2377 6.74519 5.41148 3.42955
LeftUpLeg  -22.3414 16.8438 -6.98194
LeftLeg  12.1515 12.0325 1.77668
LeftFoot  8.61358 -0.144879 1.92359
LeftToes  -9.40246 1.61378e-006 8.80029e-008
Spine  2.61336 1.31556 -2.61328
Spine1  5.08022 2.88042 -4.96563
RightShoulder  -0.00261004 8.51803 8.31031
RightArm  -50.0795 -38.1774 73.1949
RightForeArm  42.5872 6.44381 1.1307
RightHand  0.610294 -10.1677 -6.4778
LeftShoulder1  0.0253138 1.7788 -11.9578
LeftArm  -24.6154 15.2807 -65.0266
LeftForeArm  31.5274 -14.4926 -2.60544
LeftHand  0.109326 2.89096 3.95104
HEad  -5.75743 0.424416 -9.43962
RightUpLeg  -2.4272 -5.03285 -4.68521
RightLeg  18.894 1.11341 0.301867
RightFoot  -12.2766 -0.0586827 -0.168115
RightToes  -36.9585 -0.194654 -0.297305
208
root  -13.0673 34.4781 54.6635 6.87284 5.31733 3.66129
LeftUpLeg  -21.4666 16.5353 -7.36936
LeftLeg  11.9968 12.3409 1.78778
LeftFoot  7.63622 -0.116659 1.74788
LeftToes  -9.14404 1.61378e-006 8.80029e-008
Spine  2.59928 1.23613 -2.99177
Spine1  5.02115 2.6617 -5.5783
RightShoulder  -0.00377036 8.77481 8.20342
RightArm  -49.3284 -36.3922 72.4722
RightForeArm  42.2886 7.08521 1.24516
RightHand  0.62671 -10.3304 -6.55055
LeftShoulder1  0.0402374 1.51132 -12.1014
LeftArm  -20.8662 12.2583 -64.2774
LeftForeArm  32.2698 -15.0163 -2.70347
LeftHand  0.0968848 2.37407 4.29067
HEad  -5.22245 -0.0501497 -9.33741
RightUpLeg  -2.78827 -5.70931 -5.65881
RightLeg  21.0195 2.03667 0.63376
RightFoot  -11.7654 -0.0748682 -0.349091
RightToes  -40.6317 -0.223549 -0.318663
209
root  -12.7918 34.5285 55.0476 6.91013 5.53329 3.6109
LeftUpLeg  -20.7857 15.9765 -7.43304
LeftLeg  12.2194 12.5904 1.87287
LeftFoot  6.58808 -0.0884534 1.53674
LeftToes  -8.81088 1.61378e-006 8.80029e-008
Spine  2.63836 1.03173 -3.23899
Spine1  5.08693 2.17564 -5.92346
RightShoulder  -0.004451 8.84867 8.18397
RightArm  -48.9759 -33.443 71.7139
RightForeArm  42.1205 8.00601 1.40977
RightHand  0.648018 -10.063 -6.97573
LeftShoulder1  0.0583085 1.04613 -11.9314
LeftArm  -18.6156 9.05977 -63.9631
LeftForeArm  33.2396 -15.1144 -2.72127
LeftHand  0.0868547 2.20351 4.13093
HEad  -4.93618 -0.639857 -9.12759
RightUpLeg  -3.34859 -6.46491 -6.27604
RightLeg  23.6124 2.79188 1.00841
RightFoot  -11.04 -0.082729 -0.478503
RightToes  -44.2969 -0.253687 -0.338086
210
root  -12.5263 34.5769 55.4048 6.76602 5.86304 3.24574
LeftUpLeg  -20.2788 16.0855 -7.29284
LeftLeg  12.9084 12.0764 1.94498
LeftFoot  5.29156 -0.0547222 1.18415
LeftToes  -8.05796 1.61378e-006 8.80029e-008
Spine  2.74869 0.770827 -3.32755
Spine1  5.30565 1.56713 -5.95511
RightShoulder  -0.00465428 8.71709 7.9555
RightArm  -48.5854 -29.6389 71.4564
RightForeArm  41.1431 9.56569 1.69135
RightHand  0.654271 -9.45203 -7.52641
LeftShoulder1  0.0780732 0.436962 -11.6205
LeftArm  -17.4144 5.83315 -63.9676
LeftForeArm  33.9351 -14.9404 -2.68791
LeftHand  0.0818474 2.3323 3.82793
HEad  -4.7299 -1.18337 -8.95608
RightUpLeg  -4.10297 -7.03817 -6.52402
RightLeg  26.7824 3.21706 1.36551
RightFoot  -9.93749 -0.0777276 -0.516518
RightToes  -47.8794 -0.284285 -0.355171
211
root  -12.2802 34.6301 55.7277 6.49905 6.04784 2.73927
LeftUpLeg  -19.6189 16.351 -6.96011
LeftLeg  13.3807 11.5583 1.95982
LeftFoot  4.15273 -0.0321575 0.886948
LeftToes  -7.60766 1.61378e-006 8.80029e-008
Spine  2.92801 0.52118 -3.31376
Spine1  5.66109 0.973736 -5.77584
RightShoulder  -0.00432111 8.44787 7.41835
RightArm  -46.3149 -25.5113 71.9552
RightForeArm  37.5943 12.632 2.25505
RightHand  0.632809 -8.75533 -7.87615
LeftShoulder1  0.0982249 -0.161771 -11.409
LeftArm  -16.9024 2.56279 -64.005
LeftForeArm  34.5007 -14.6316 -2.62934
LeftHand  0.083805 2.35598 3.74009
HEad  -4.43137 -1.75533 -8.91327
RightUpLeg  -5.33946 -7.54761 -6.60011
RightLeg  30.8039 3.68311 1.87507
RightFoot  -8.42692 -0.0669251 -0.530902
RightToes  -49.4735 -0.298232 -0.362152
212
root  -12.0604 34.6781 56.0076 6.26302 6.23328 2.47292
LeftUpLeg  -18.8447 16.6983 -6.86287
LeftLeg  13.3777 10.9763 1.86177
LeftFoot  3.40467 -0.0200831 0.683757
LeftToes  -7.38261 1.61378e-006 8.80029e-008
Spine  3.09232 0.235872 -3.39916
Spine1  5.99678 0.313989 -5.80535
RightShoulder  -0.00309422 8.03814 6.98626
RightArm  -42.1659 -21.5253 73.0016
RightForeArm  32.3892 17.2568 3.13242
RightHand  0.598232 -8.23692 -7.91752
LeftShoulder1  0.114805 -0.592089 -11.08
LeftArm  -16.7402 -0.508675 -63.9216
LeftForeArm  34.9879 -14.5289 -2.60962
LeftHand  0.0887029 2.40413 3.84046
HEad  -3.9918 -2.37722 -8.68481
RightUpLeg  -7.25802 -8.09573 -6.8034
RightLeg  35.9289 3.80641 2.38243
RightFoot  -6.55864 -0.0480594 -0.461257
RightToes  -51.8547 -0.319412 -0.37185
